<?xml version="1.0" encoding="UTF-8" standalone="no"?>
<svg
   xmlns:osb="http://www.openswatchbook.org/uri/2009/osb"
   xmlns:dc="http://purl.org/dc/elements/1.1/"
   xmlns:cc="http://creativecommons.org/ns#"
   xmlns:rdf="http://www.w3.org/1999/02/22-rdf-syntax-ns#"
   xmlns:svg="http://www.w3.org/2000/svg"
   xmlns="http://www.w3.org/2000/svg"
   xmlns:xlink="http://www.w3.org/1999/xlink"
   xmlns:sodipodi="http://sodipodi.sourceforge.net/DTD/sodipodi-0.dtd"
   xmlns:inkscape="http://www.inkscape.org/namespaces/inkscape"
   width="100%"
   height="100%"
   viewBox="0 0 1169 405"
   version="1.1"
   xml:space="preserve"
   style="fill-rule:evenodd;clip-rule:evenodd;stroke-linejoin:round;stroke-miterlimit:2;"
   id="svg202"
   sodipodi:docname="Rewako-Kurtyny_paskowe-PCV-logo_biale.svg"
   inkscape:version="1.0 (4035a4fb49, 2020-05-01)"><metadata
   id="metadata208"><rdf:RDF><cc:Work
       rdf:about=""><dc:format>image/svg+xml</dc:format><dc:type
         rdf:resource="http://purl.org/dc/dcmitype/StillImage" /><dc:title></dc:title></cc:Work></rdf:RDF></metadata><defs
   id="defs206"><linearGradient
     inkscape:collect="always"
     id="linearGradient3431"><stop
       style="stop-color:#283c02;stop-opacity:1;"
       offset="0"
       id="stop3427" /><stop
       style="stop-color:#283c02;stop-opacity:0;"
       offset="1"
       id="stop3429" /></linearGradient><linearGradient
     id="linearGradient1491"
     osb:paint="solid"><stop
       style="stop-color:#283c02;stop-opacity:1;"
       offset="0"
       id="stop1489" /></linearGradient><radialGradient
     inkscape:collect="always"
     xlink:href="#linearGradient3431"
     id="radialGradient3433"
     cx="0.3035"
     cy="-0.405"
     fx="0.3035"
     fy="-0.405"
     r="0.2425"
     gradientTransform="matrix(1,0,0,1.6701031,0,0.27139175)"
     gradientUnits="userSpaceOnUse" /></defs><sodipodi:namedview
   inkscape:document-rotation="0"
   pagecolor="#ffffff"
   bordercolor="#666666"
   borderopacity="1"
   objecttolerance="10"
   gridtolerance="10"
   guidetolerance="10"
   inkscape:pageopacity="0"
   inkscape:pageshadow="2"
   inkscape:window-width="1920"
   inkscape:window-height="1017"
   id="namedview204"
   showgrid="false"
   inkscape:zoom="0.72880595"
   inkscape:cx="320.36934"
   inkscape:cy="229.67025"
   inkscape:window-x="-8"
   inkscape:window-y="-8"
   inkscape:window-maximized="1"
   inkscape:current-layer="svg202" />
    <g
   transform="matrix(346.34,0,0,380.23183,-21.1268,309.3172)"
   id="g112"
   style="opacity:1;fill:#ffffff;fill-opacity:1;stroke-width:1;stroke-miterlimit:4;stroke-dasharray:none">
        <path
   d="m 0.061,0 v -0.81 h 0.21 c 0.055,0 0.102,0.006 0.14,0.018 0.04,0.013 0.07,0.035 0.09,0.066 0.022,0.031 0.032,0.075 0.032,0.13 0,0.033 -0.003,0.063 -0.008,0.089 C 0.519,-0.482 0.509,-0.46 0.495,-0.441 0.48,-0.422 0.46,-0.406 0.434,-0.395 L 0.546,0 H 0.377 L 0.284,-0.367 H 0.226 V 0 Z m 0.165,-0.465 h 0.048 c 0.027,0 0.048,-0.004 0.063,-0.013 C 0.352,-0.487 0.363,-0.5 0.37,-0.518 0.376,-0.535 0.379,-0.557 0.379,-0.583 0.379,-0.62 0.372,-0.649 0.359,-0.669 0.345,-0.688 0.319,-0.698 0.282,-0.698 H 0.226 Z"
   style="fill:#ffffff;fill-opacity:1;fill-rule:nonzero;stroke-width:1;stroke-miterlimit:4;stroke-dasharray:none"
   id="path110" />
    </g>
    <g
   transform="matrix(346.34,0,0,380.23183,180.79,309.3172)"
   id="g116"
   style="fill:#ffffff;fill-opacity:1">
        <path
   d="M 0.234,0.01 C 0.191,0.01 0.156,0.002 0.127,-0.014 0.098,-0.029 0.077,-0.052 0.062,-0.083 0.047,-0.113 0.04,-0.149 0.04,-0.192 v -0.194 c 0,-0.044 0.007,-0.081 0.022,-0.111 0.015,-0.029 0.037,-0.052 0.066,-0.068 0.029,-0.015 0.065,-0.023 0.106,-0.023 0.044,0 0.08,0.008 0.107,0.024 0.027,0.016 0.048,0.039 0.061,0.07 0.012,0.031 0.019,0.068 0.019,0.112 v 0.101 H 0.189 v 0.112 c 0,0.017 0.002,0.03 0.006,0.041 0.003,0.011 0.008,0.018 0.015,0.022 0.007,0.005 0.015,0.007 0.025,0.007 0.009,0 0.018,-0.002 0.025,-0.007 0.007,-0.004 0.012,-0.011 0.015,-0.02 0.003,-0.009 0.005,-0.022 0.005,-0.037 v -0.055 h 0.14 v 0.048 c 0,0.059 -0.016,0.103 -0.048,0.134 C 0.34,-0.005 0.294,0.01 0.234,0.01 Z M 0.189,-0.353 H 0.28 V -0.41 C 0.28,-0.427 0.278,-0.44 0.275,-0.451 0.272,-0.461 0.267,-0.468 0.26,-0.472 0.253,-0.477 0.244,-0.479 0.233,-0.479 c -0.01,0 -0.018,0.002 -0.024,0.007 -0.007,0.005 -0.012,0.013 -0.015,0.024 -0.003,0.012 -0.005,0.029 -0.005,0.05 z"
   style="fill:#ffffff;fill-opacity:1;fill-rule:nonzero"
   id="path114" />
    </g>
    <g
   transform="matrix(651.47,0,0,380.23183,312.266,309.3172)"
   id="g120"
   style="fill:#ffffff;fill-opacity:1">
        <path
   d="M 0.097,-0.091 0.022,-0.578 h 0.126 l 0.023,0.175 z"
   style="fill:#ffffff;fill-opacity:1;fill-rule:nonzero"
   id="path118" />
    </g>
    <g
   transform="matrix(651.47,0,0,380.23183,461.266,309.3172)"
   id="g124"
   style="fill:#ffffff;fill-opacity:1">
        <path
   d="M 0.096,-0.091 0.071,-0.257 0.147,-0.578 0.17,-0.403 Z"
   style="fill:#ffffff;fill-opacity:1;fill-rule:nonzero"
   id="path122" />
    </g>
    <g
   transform="matrix(1,0,0,1.1138278,-203.312,-1366.1504)"
   id="g128">
        <path
   d="m 736.588,1504.24 h 84.04 l 90,-197.31 H 825.84 Z"
   style="fill:#163d26"
   id="path126" />
    </g>
    <g
   transform="matrix(346.34,0,0,380.23183,680.502,309.3172)"
   id="g132"
   style="fill:#ffffff;fill-opacity:1">
        <path
   d="M 0.167,0.01 C 0.14,0.01 0.116,0.003 0.097,-0.011 0.077,-0.025 0.062,-0.043 0.052,-0.064 0.042,-0.085 0.037,-0.107 0.037,-0.13 0.037,-0.166 0.044,-0.196 0.058,-0.221 0.072,-0.246 0.09,-0.266 0.113,-0.283 0.136,-0.3 0.161,-0.314 0.189,-0.326 0.217,-0.338 0.245,-0.349 0.273,-0.359 V -0.413 C 0.273,-0.426 0.272,-0.437 0.27,-0.446 0.268,-0.455 0.264,-0.463 0.259,-0.468 0.253,-0.472 0.245,-0.475 0.234,-0.475 0.223,-0.475 0.215,-0.473 0.21,-0.469 0.204,-0.464 0.2,-0.458 0.198,-0.45 0.195,-0.441 0.194,-0.432 0.193,-0.422 L 0.19,-0.382 0.047,-0.388 c 0.003,-0.068 0.021,-0.118 0.054,-0.151 0.032,-0.033 0.081,-0.049 0.146,-0.049 0.059,0 0.102,0.016 0.13,0.048 0.028,0.033 0.042,0.075 0.042,0.128 v 0.269 c 0,0.023 0.001,0.043 0.002,0.06 0.001,0.018 0.002,0.034 0.004,0.048 C 0.426,-0.022 0.428,-0.01 0.429,0 H 0.293 C 0.291,-0.015 0.289,-0.031 0.286,-0.048 0.283,-0.065 0.281,-0.077 0.28,-0.083 0.273,-0.059 0.261,-0.038 0.242,-0.019 0.223,0 0.198,0.01 0.167,0.01 Z m 0.055,-0.107 c 0.007,0 0.014,-0.002 0.021,-0.005 C 0.25,-0.105 0.256,-0.11 0.261,-0.115 0.266,-0.12 0.27,-0.125 0.273,-0.13 v -0.159 c -0.014,0.009 -0.027,0.017 -0.039,0.025 -0.012,0.009 -0.022,0.018 -0.031,0.028 -0.009,0.01 -0.015,0.021 -0.02,0.033 -0.005,0.012 -0.007,0.026 -0.007,0.041 0,0.02 0.004,0.036 0.012,0.047 0.008,0.012 0.019,0.018 0.034,0.018 z"
   style="fill:#ffffff;fill-opacity:1;fill-rule:nonzero"
   id="path130" />
    </g>
    <g
   transform="matrix(346.34,0,0,380.23183,841.55,309.3172)"
   id="g136"
   style="fill:#ffffff;fill-opacity:1">
        <path
   d="m 0.052,0 v -0.81 h 0.15 v 0.456 L 0.347,-0.578 H 0.515 L 0.365,-0.343 0.513,0 H 0.35 L 0.247,-0.279 0.202,-0.22 V 0 Z"
   style="fill:#ffffff;fill-opacity:1;fill-rule:nonzero"
   id="path134" />
    </g>
    <g
   transform="matrix(346.34,0,0,380.23183,1019.22,309.3172)"
   id="g140"
   style="fill:#ffffff;fill-opacity:1">
        <path
   d="M 0.235,0.01 C 0.194,0.01 0.158,0.002 0.129,-0.013 0.1,-0.028 0.078,-0.049 0.063,-0.078 0.048,-0.107 0.04,-0.142 0.04,-0.185 v -0.208 c 0,-0.043 0.008,-0.078 0.023,-0.107 0.015,-0.029 0.037,-0.051 0.066,-0.066 0.029,-0.015 0.065,-0.022 0.106,-0.022 0.041,0 0.077,0.007 0.106,0.022 0.029,0.015 0.052,0.037 0.067,0.066 0.015,0.029 0.023,0.064 0.023,0.107 v 0.208 c 0,0.043 -0.008,0.078 -0.023,0.107 C 0.393,-0.049 0.37,-0.028 0.341,-0.013 0.312,0.002 0.276,0.01 0.235,0.01 Z m 0.001,-0.102 c 0.013,0 0.022,-0.004 0.029,-0.01 0.007,-0.008 0.011,-0.017 0.013,-0.03 0.002,-0.012 0.003,-0.026 0.003,-0.042 V -0.403 C 0.281,-0.42 0.28,-0.434 0.278,-0.446 0.276,-0.458 0.272,-0.468 0.265,-0.475 0.258,-0.482 0.249,-0.486 0.236,-0.486 0.223,-0.486 0.214,-0.482 0.207,-0.475 0.2,-0.468 0.196,-0.458 0.194,-0.446 0.191,-0.434 0.19,-0.42 0.19,-0.403 v 0.229 c 0,0.016 0.001,0.03 0.004,0.042 0.002,0.013 0.006,0.022 0.013,0.03 0.007,0.006 0.016,0.01 0.029,0.01 z"
   style="fill:#ffffff;fill-opacity:1;fill-rule:nonzero"
   id="path138" />
    </g>
    <g
   transform="matrix(1,0,0,1.1138278,-353.312,-1366.1504)"
   id="g144">
        <path
   d="m 736.588,1504.24 h 84.04 l 90,-197.31 H 825.84 Z"
   style="fill:#340926"
   id="path142" />
    </g>
    <g
   transform="matrix(98.1589,0,0,64.497667,281.378,384.11561)"
   id="g148"
   style="fill:#ffffff;fill-opacity:1">
        <path
   d="m 0.063,0 v -0.81 h 0.113 v 0.382 L 0.362,-0.81 H 0.467 L 0.307,-0.453 0.493,0 H 0.383 L 0.228,-0.38 0.176,-0.286 V 0 Z"
   style="fill:#ffffff;fill-opacity:1;fill-rule:nonzero"
   id="path146" />
    </g>
    <g
   transform="matrix(98.1589,0,0,64.497667,329.967,384.11561)"
   id="g152"
   style="fill:#ffffff;fill-opacity:1">
        <path
   d="M 0.137,0.008 C 0.114,0.008 0.097,0.002 0.084,-0.01 0.071,-0.022 0.063,-0.037 0.058,-0.055 0.053,-0.073 0.05,-0.091 0.05,-0.11 v -0.468 h 0.107 v 0.436 c 0,0.021 0.003,0.037 0.009,0.048 0.006,0.012 0.018,0.018 0.037,0.018 0.012,0 0.025,-0.004 0.038,-0.01 0.013,-0.008 0.025,-0.016 0.037,-0.026 V -0.578 H 0.385 V 0 H 0.278 V -0.057 C 0.259,-0.039 0.238,-0.024 0.215,-0.011 0.191,0.002 0.165,0.008 0.137,0.008 Z"
   style="fill:#ffffff;fill-opacity:1;fill-rule:nonzero"
   id="path150" />
    </g>
    <g
   transform="matrix(98.1589,0,0,64.497667,373.157,384.11561)"
   id="g156"
   style="fill:#ffffff;fill-opacity:1">
        <path
   d="m 0.057,0 v -0.578 h 0.107 v 0.082 C 0.185,-0.531 0.207,-0.555 0.228,-0.567 0.249,-0.579 0.271,-0.585 0.292,-0.585 H 0.3 c 0.002,0 0.005,0 0.009,0.001 v 0.118 C 0.301,-0.469 0.292,-0.472 0.281,-0.474 0.271,-0.477 0.261,-0.478 0.25,-0.478 c -0.017,0 -0.032,0.004 -0.046,0.011 -0.013,0.008 -0.027,0.023 -0.04,0.045 V 0 Z"
   style="fill:#ffffff;fill-opacity:1;fill-rule:nonzero"
   id="path154" />
    </g>
    <g
   transform="matrix(98.1589,0,0,64.497667,404.666,384.11561)"
   id="g160"
   style="fill:#ffffff;fill-opacity:1">
        <path
   d="M 0.208,0.008 C 0.178,0.008 0.154,0.002 0.136,-0.009 0.117,-0.02 0.104,-0.036 0.096,-0.057 0.087,-0.078 0.083,-0.102 0.083,-0.13 V -0.507 H 0.022 V -0.578 H 0.083 V -0.747 H 0.19 v 0.169 h 0.093 v 0.071 H 0.19 v 0.37 c 0,0.023 0.004,0.039 0.011,0.048 0.007,0.01 0.021,0.015 0.042,0.015 0.005,0 0.012,0 0.019,-0.001 0.007,-0.001 0.013,-0.001 0.02,-0.002 V 0.002 C 0.269,0.004 0.256,0.005 0.245,0.006 0.234,0.007 0.221,0.008 0.208,0.008 Z"
   style="fill:#ffffff;fill-opacity:1;fill-rule:nonzero"
   id="path158" />
    </g>
    <g
   transform="matrix(98.1589,0,0,64.497667,434.899,384.11561)"
   id="g164"
   style="fill:#ffffff;fill-opacity:1">
        <path
   d="M 0.045,0.145 V 0.063 C 0.071,0.063 0.092,0.062 0.107,0.059 0.122,0.057 0.133,0.053 0.14,0.046 0.147,0.04 0.15,0.031 0.15,0.02 0.15,0.014 0.148,0.001 0.143,-0.02 0.138,-0.041 0.133,-0.063 0.128,-0.086 L 0.012,-0.578 H 0.12 l 0.078,0.432 0.075,-0.432 H 0.381 L 0.243,0.032 C 0.237,0.06 0.226,0.082 0.21,0.098 0.194,0.115 0.173,0.127 0.149,0.134 0.124,0.141 0.093,0.145 0.058,0.145 Z"
   style="fill:#ffffff;fill-opacity:1;fill-rule:nonzero"
   id="path162" />
    </g>
    <g
   transform="matrix(98.1589,0,0,64.497667,473.377,384.11561)"
   id="g168"
   style="fill:#ffffff;fill-opacity:1">
        <path
   d="m 0.054,0 v -0.578 h 0.107 v 0.057 c 0.019,-0.018 0.041,-0.033 0.064,-0.046 0.023,-0.013 0.049,-0.019 0.077,-0.019 0.023,0 0.041,0.006 0.054,0.018 0.012,0.012 0.021,0.027 0.026,0.045 0.005,0.018 0.007,0.036 0.007,0.055 V 0 H 0.282 v -0.437 c 0,-0.021 -0.003,-0.037 -0.009,-0.048 -0.006,-0.011 -0.018,-0.017 -0.037,-0.017 -0.012,0 -0.024,0.003 -0.037,0.01 -0.013,0.007 -0.026,0.016 -0.038,0.026 V 0 Z"
   style="fill:#ffffff;fill-opacity:1;fill-rule:nonzero"
   id="path166" />
    </g>
    <g
   transform="matrix(98.1589,0,0,64.497667,516.469,384.11561)"
   id="g172"
   style="fill:#ffffff;fill-opacity:1">
        <path
   d="M 0.045,0.145 V 0.063 C 0.071,0.063 0.092,0.062 0.107,0.059 0.122,0.057 0.133,0.053 0.14,0.046 0.147,0.04 0.15,0.031 0.15,0.02 0.15,0.014 0.148,0.001 0.143,-0.02 0.138,-0.041 0.133,-0.063 0.128,-0.086 L 0.012,-0.578 H 0.12 l 0.078,0.432 0.075,-0.432 H 0.381 L 0.243,0.032 C 0.237,0.06 0.226,0.082 0.21,0.098 0.194,0.115 0.173,0.127 0.149,0.134 0.124,0.141 0.093,0.145 0.058,0.145 Z"
   style="fill:#ffffff;fill-opacity:1;fill-rule:nonzero"
   id="path170" />
    </g>
    <g
   transform="matrix(98.1589,0,0,64.497667,577.426,384.11561)"
   id="g176"
   style="fill:#ffffff;fill-opacity:1">
        <path
   d="m 0.063,0 v -0.81 h 0.201 c 0.049,0 0.088,0.009 0.117,0.026 0.028,0.018 0.05,0.044 0.063,0.077 0.013,0.033 0.02,0.074 0.02,0.121 0,0.043 -0.007,0.08 -0.022,0.111 -0.015,0.031 -0.038,0.055 -0.067,0.072 -0.029,0.017 -0.066,0.026 -0.11,0.026 H 0.176 V 0 Z m 0.113,-0.458 h 0.052 c 0.033,0 0.058,-0.004 0.077,-0.011 0.019,-0.007 0.032,-0.02 0.04,-0.038 0.008,-0.019 0.012,-0.045 0.012,-0.078 0,-0.039 -0.003,-0.068 -0.009,-0.089 C 0.343,-0.695 0.331,-0.709 0.313,-0.717 0.295,-0.725 0.267,-0.729 0.229,-0.729 H 0.176 Z"
   style="fill:#ffffff;fill-opacity:1;fill-rule:nonzero"
   id="path174" />
    </g>
    <g
   transform="matrix(98.1589,0,0,64.497667,624.542,384.11561)"
   id="g180"
   style="fill:#ffffff;fill-opacity:1">
        <path
   d="M 0.158,0.008 C 0.135,0.008 0.115,0.001 0.098,-0.012 0.081,-0.025 0.067,-0.041 0.057,-0.062 0.047,-0.082 0.042,-0.103 0.042,-0.126 0.042,-0.162 0.048,-0.192 0.06,-0.217 0.072,-0.242 0.089,-0.263 0.11,-0.28 0.131,-0.297 0.155,-0.311 0.183,-0.324 0.21,-0.337 0.239,-0.349 0.27,-0.361 V -0.402 C 0.27,-0.425 0.269,-0.445 0.266,-0.46 0.263,-0.475 0.258,-0.487 0.25,-0.495 0.241,-0.502 0.229,-0.506 0.212,-0.506 c -0.015,0 -0.026,0.003 -0.035,0.01 -0.009,0.007 -0.016,0.016 -0.02,0.028 -0.004,0.013 -0.006,0.027 -0.006,0.044 v 0.029 L 0.045,-0.399 c 0.001,-0.064 0.016,-0.111 0.044,-0.142 0.028,-0.03 0.071,-0.045 0.13,-0.045 0.057,0 0.098,0.016 0.122,0.047 0.024,0.031 0.036,0.077 0.036,0.136 v 0.264 c 0,0.018 0.001,0.035 0.002,0.052 0.001,0.017 0.002,0.032 0.004,0.046 C 0.384,-0.026 0.386,-0.013 0.387,0 H 0.289 C 0.287,-0.011 0.284,-0.024 0.281,-0.041 0.279,-0.057 0.276,-0.072 0.275,-0.085 0.268,-0.062 0.256,-0.041 0.236,-0.021 0.218,-0.002 0.191,0.008 0.158,0.008 Z M 0.2,-0.084 c 0.011,0 0.021,-0.003 0.03,-0.009 0.009,-0.006 0.018,-0.013 0.025,-0.021 0.007,-0.007 0.012,-0.013 0.015,-0.018 v -0.164 c -0.017,0.009 -0.032,0.019 -0.047,0.028 -0.015,0.009 -0.027,0.019 -0.038,0.03 -0.012,0.01 -0.02,0.021 -0.026,0.035 -0.007,0.012 -0.01,0.027 -0.01,0.044 0,0.023 0.004,0.042 0.013,0.055 0.009,0.013 0.021,0.02 0.038,0.02 z"
   style="fill:#ffffff;fill-opacity:1;fill-rule:nonzero"
   id="path178" />
    </g>
    <g
   transform="matrix(98.1589,0,0,64.497667,666.357,384.11561)"
   id="g184"
   style="fill:#ffffff;fill-opacity:1">
        <path
   d="M 0.188,0.008 C 0.141,0.008 0.103,-0.007 0.074,-0.037 0.045,-0.066 0.029,-0.105 0.025,-0.154 l 0.089,-0.027 c 0.005,0.037 0.014,0.064 0.027,0.082 0.013,0.019 0.031,0.028 0.056,0.028 0.019,0 0.034,-0.006 0.044,-0.016 0.01,-0.012 0.015,-0.026 0.015,-0.045 0,-0.017 -0.004,-0.032 -0.011,-0.045 C 0.238,-0.19 0.226,-0.204 0.209,-0.218 L 0.11,-0.303 C 0.09,-0.32 0.073,-0.34 0.059,-0.361 0.046,-0.382 0.039,-0.41 0.039,-0.444 0.039,-0.475 0.045,-0.5 0.058,-0.522 0.07,-0.543 0.087,-0.559 0.11,-0.57 c 0.022,-0.011 0.048,-0.016 0.078,-0.016 0.046,0 0.081,0.015 0.106,0.044 0.024,0.03 0.038,0.066 0.041,0.108 L 0.263,-0.407 C 0.26,-0.427 0.256,-0.445 0.251,-0.46 0.246,-0.474 0.238,-0.486 0.229,-0.495 0.22,-0.503 0.207,-0.507 0.192,-0.507 c -0.017,0 -0.031,0.006 -0.041,0.017 -0.011,0.012 -0.016,0.026 -0.016,0.042 0,0.01 0.002,0.02 0.006,0.029 0.005,0.01 0.012,0.02 0.023,0.029 l 0.102,0.094 c 0.014,0.013 0.027,0.026 0.04,0.041 0.012,0.015 0.022,0.031 0.03,0.05 0.008,0.019 0.012,0.04 0.012,0.065 0,0.033 -0.007,0.06 -0.02,0.082 C 0.315,-0.036 0.296,-0.02 0.272,-0.009 0.248,0.002 0.22,0.008 0.188,0.008 Z"
   style="fill:#ffffff;fill-opacity:1;fill-rule:nonzero"
   id="path182" />
    </g>
    <g
   transform="matrix(98.1589,0,0,64.497667,703.069,384.11561)"
   id="g188"
   style="fill:#ffffff;fill-opacity:1">
        <path
   d="m 0.056,-0.001 v -0.81 h 0.107 v 0.483 l 0.156,-0.25 H 0.431 L 0.295,-0.352 0.427,0 H 0.32 L 0.212,-0.296 0.163,-0.222 v 0.221 z"
   style="fill:#ffffff;fill-opacity:1;fill-rule:nonzero"
   id="path186" />
    </g>
    <g
   transform="matrix(98.1589,0,0,64.497667,745.179,384.11561)"
   id="g192"
   style="fill:#ffffff;fill-opacity:1">
        <path
   d="M 0.213,0.008 C 0.17,0.008 0.137,-0.001 0.112,-0.018 0.087,-0.035 0.07,-0.06 0.059,-0.092 0.049,-0.124 0.044,-0.162 0.044,-0.205 v -0.168 c 0,-0.043 0.005,-0.081 0.015,-0.113 0.011,-0.032 0.028,-0.057 0.053,-0.074 0.025,-0.017 0.058,-0.026 0.101,-0.026 0.043,0 0.076,0.009 0.101,0.026 0.024,0.017 0.041,0.042 0.052,0.074 0.01,0.032 0.015,0.07 0.015,0.113 v 0.168 c 0,0.043 -0.005,0.081 -0.015,0.113 C 0.355,-0.06 0.338,-0.035 0.314,-0.018 0.289,-0.001 0.256,0.008 0.213,0.008 Z m 0,-0.079 c 0.021,0 0.035,-0.006 0.044,-0.018 0.008,-0.012 0.013,-0.028 0.015,-0.048 0.001,-0.019 0.002,-0.04 0.002,-0.061 V -0.379 C 0.274,-0.401 0.273,-0.422 0.272,-0.441 0.27,-0.46 0.265,-0.476 0.257,-0.489 0.248,-0.501 0.234,-0.507 0.213,-0.507 c -0.021,0 -0.035,0.006 -0.044,0.018 -0.009,0.013 -0.014,0.029 -0.015,0.048 -0.002,0.019 -0.003,0.04 -0.003,0.062 v 0.181 c 0,0.021 0.001,0.042 0.003,0.061 0.001,0.02 0.006,0.036 0.015,0.048 0.009,0.012 0.023,0.018 0.044,0.018 z"
   style="fill:#ffffff;fill-opacity:1;fill-rule:nonzero"
   id="path190" />
    </g>
    <g
   transform="matrix(98.1589,0,0,64.497667,786.111,384.11561)"
   id="g196"
   style="fill:#ffffff;fill-opacity:1">
        <path
   d="M 0.121,0 0.028,-0.578 h 0.088 l 0.06,0.426 0.077,-0.426 h 0.082 l 0.077,0.424 0.06,-0.424 H 0.56 L 0.464,0 H 0.374 L 0.295,-0.408 0.217,0 Z"
   style="fill:#ffffff;fill-opacity:1;fill-rule:nonzero"
   id="path194" />
    </g>
    <g
   transform="matrix(98.1589,0,0,64.497667,843.829,384.11561)"
   id="g200"
   style="fill:#ffffff;fill-opacity:1">
        <path
   d="M 0.214,0.008 C 0.169,0.008 0.134,-0.001 0.109,-0.019 0.084,-0.036 0.067,-0.062 0.058,-0.097 0.048,-0.131 0.043,-0.173 0.043,-0.223 v -0.132 c 0,-0.051 0.005,-0.094 0.015,-0.128 0.01,-0.034 0.028,-0.06 0.053,-0.077 0.025,-0.017 0.059,-0.026 0.103,-0.026 0.049,0 0.085,0.01 0.108,0.03 0.022,0.02 0.038,0.049 0.045,0.087 0.007,0.037 0.011,0.082 0.011,0.135 v 0.047 H 0.15 v 0.116 c 0,0.023 0.002,0.042 0.007,0.057 0.004,0.015 0.011,0.025 0.021,0.032 0.009,0.007 0.022,0.011 0.037,0.011 0.016,0 0.028,-0.004 0.037,-0.012 0.008,-0.007 0.014,-0.018 0.017,-0.033 0.003,-0.014 0.004,-0.031 0.004,-0.05 v -0.035 h 0.104 v 0.022 c 0,0.058 -0.012,0.104 -0.037,0.137 -0.025,0.033 -0.067,0.05 -0.126,0.05 z M 0.15,-0.345 H 0.273 V -0.397 C 0.273,-0.421 0.272,-0.441 0.269,-0.458 0.266,-0.474 0.261,-0.486 0.253,-0.495 0.244,-0.503 0.231,-0.507 0.213,-0.507 c -0.017,0 -0.03,0.004 -0.04,0.012 -0.008,0.008 -0.015,0.022 -0.018,0.04 -0.003,0.019 -0.005,0.046 -0.005,0.079 z"
   style="fill:#ffffff;fill-opacity:1;fill-rule:nonzero"
   id="path198" />
    </g>
</svg>
